# AST/ASF file generated using VICON BodyLanguage
# -----------------------------------------------
:version 1.10
:name VICON
:units
  mass 1.0
  length 0.45
  angle deg
:documentation
   .ast/.asf automatically generated from VICON data using
   VICON BodyBuilder and BodyLanguage model FoxedUp or BRILLIANT.MOD
:root
   order TX TY TZ RX RY RZ
   axis XYZ
   position 0 0 0  
   orientation 0 0 0 
:bonedata
  begin
     id 1 
     name lhipjoint
     direction 0.630305 -0.712092 0.309259 
     length 2.29033 
     axis 0 0 0  XYZ
  end
  begin
     id 2 
     name lfemur
     direction 0.34202 -0.939693 0  
     length 6.43538  
     axis 0 0 20  XYZ
    dof rx ry rz
    limits (-160.0 20.0)
           (-70.0 70.0)
           (-60.0 70.0)
  end
  begin
     id 3 
     name ltibia
     direction 0.34202 -0.939693 0   
     length 7.43097   
     axis 0 0 20   XYZ
    dof rx
    limits (-10.0 170.0)
  end
  begin
     id 4 
     name lfoot
     direction 0.0334653 -0.0919451 0.995202   
     length 1.78438   
     axis -90 7.62852e-016 20   XYZ
    dof rx rz
    limits (-45.0 90.0)
           (-70.0 20.0)
  end
  begin
     id 5 
     name ltoes
     direction 1.53535e-011 -4.21933e-011 1   
     length 0.90832   
     axis -90 7.62852e-016 20   XYZ
    dof rx
    limits (-90.0 20.0)
  end
  begin
     id 6 
     name rhipjoint
     direction -0.682059 -0.67077 0.291312   
     length 2.43143  
     axis 0 0 0  XYZ 
  end
  begin
     id 7 
     name rfemur
     direction -0.34202 -0.939693 0   
     length 6.63488   
     axis 0 0 -20   XYZ
    dof rx ry rz
    limits (-160.0 20.0)
           (-70.0 70.0)
           (-70.0 60.0)
  end
  begin
     id 8 
     name rtibia
     direction -0.34202 -0.939693 0   
     length 6.86532   
     axis 0 0 -20   XYZ
    dof rx
    limits (-10.0 170.0)
 end
 begin
     id 9 
     name rfoot
     direction -0.105199 -0.289033 0.951521   
     length 1.77126  
     axis -90 -7.62852e-016 -20   XYZ
    dof rx rz
    limits (-45.0 90.0)
           (-20.0 70.0)
  end
  begin
     id 10 
     name rtoes
     direction -1.53551e-011 -4.21978e-011 1   
     length 0.889273   
     axis -90 -7.62852e-016 -20   XYZ
    dof rx
    limits (-90.0 20.0)
  end
  begin
     id 11 
     name lowerback
     direction -0.0514305 0.998089 0.034245   
     length 2.02077   
     axis 0 0 0   XYZ
    dof rx ry rz
    limits (-20.0 45.0)
           (-30.0 30.0)
           (-30.0 30.0)
  end
  begin
     id 12 
     name upperback
     direction 0.0203189 0.999449 -0.0262315   
     length 2.01413   
     axis 0 0 0   XYZ
    dof rx ry rz
    limits (-20.0 45.0)
           (-30.0 30.0)
           (-30.0 30.0)
  end
  begin
     id 13 
     name thorax
     direction 0.0452736 0.998142 -0.0407729   
     length 2.02986   
     axis 0 0 0   XYZ
    dof rx ry rz
    limits (-20.0 45.0)
           (-30.0 30.0)
           (-30.0 30.0)
  end
  begin
     id 14 
     name lowerneck
     direction -0.0180464 0.999645 -0.0195774   
     length 1.59034   
     axis 0 0 0   XYZ
    dof rx ry rz
    limits (-20.0 45.0)
           (-30.0 30.0)
           (-30.0 30.0)
  end
  begin
     id 15 
     name upperneck
     direction 0.0732272 0.979935 -0.18538   
     length 1.57486   
     axis 0 0 0   XYZ
    dof rx ry rz
    limits (-20.0 45.0)
           (-30.0 30.0)
           (-30.0 30.0)
  end
  begin
     id 16
     name head
     direction 0.0252963 0.997909 -0.059472  
     length 1.60334  
     axis 0 0 0   XYZ
    dof rx ry rz
    limits (-20.0 45.0)
           (-30.0 30.0)
           (-30.0 30.0)
  end
  begin
     id 17 
     name lclavicle
     direction 0.943819 0.330449 0.00315172  
     length 3.50322  
     axis 0 0 0   XYZ
    dof ry rz
    limits (-20.0 10.0)
           (0.0 20.0)
  end
  begin
     id 18 
     name lhumerus
     direction 1 -4.48949e-011 2.22502e-028   
     length 4.63208   
     axis 180 -30 -90   XYZ
    dof rx ry rz
    limits (-60.0 90.0)
           (-90.0 90.0)
           (-90.0 90.0)
  end
  begin
     id 19
     name lradius
     direction 1 -4.48967e-011 -4.10197e-027   
     length 3.41924   
     axis 180 -30 -90   XYZ
    dof rx
    limits (-10.0 170.0)
  end
  begin
     id 20
     name lwrist
     direction 1 -4.48987e-011 -1.24264e-027   
     length 1.70962   
     axis 2.50585e-015 90 90   XYZ
    dof ry
    limits (-180.0 0.0)
 end
  begin
     id 21 
     name lhand
     direction 1 -4.48983e-011 -2.48528e-027   
     length 0.62537   
     axis 1.58582e-015 90 90   XYZ
    dof rx rz
    limits (-90.0 90.0)
           (-45.0 45.0)
  end
  begin
     id 22 
     name lfingers
     direction 1 -4.48896e-011 -4.97056e-027   
     length 0.50419   
     axis 3.17164e-015 90 90   XYZ
    dof rx
    limits (0.0 90.0)
  end
  begin
     id 23
     name lthumb
     direction 0.707107 -6.34803e-011 0.707107   
     length 0.723919   
     axis -90 45 2.85299e-015   XYZ
    dof rx rz
    limits (-45.0 45.0)
           (-45.0 45.0)
  end
  begin
     id 24 
     name rclavicle
     direction -0.964499 0.260664 -0.0423695   
     length 3.91997  
     axis 0 0 0   XYZ 
    dof ry rz
    limits (-10.0 20.0)
           (-20.0 0.0)
  end
  begin
     id 25 
     name rhumerus
     direction -1 -4.48957e-011 -1.98656e-027  
     length 4.4064   
     axis 180 30 90   XYZ
    dof rx ry rz
    limits (-90.0 60.0)
           (-90.0 90.0)
           (-90.0 90.0)
  end
  begin
     id 26 
     name rradius
     direction -1 -4.48968e-011 1.96972e-027   
     length 3.44675   
     axis 180 30 90   XYZ
    dof rx
    limits (-10.0 170.0)
  end
  begin
     id 27 
     name rwrist
     direction -1 -4.48974e-011 -1.24264e-027   
     length 1.72338   
     axis 2.50585e-015 -90 -90   XYZ
    dof ry
    limits (-180.0 0.0)
  end
  begin
     id 28
     name rhand
     direction -1 -4.48901e-011 -2.48528e-027   
     length 0.513674   
     axis 1.58582e-015 -90 -90   XYZ
    dof rx rz
    limits (-90.0 90.0)
           (-45.0 45.0)
  end
  begin
     id 29
     name rfingers
     direction -1 -4.48946e-011 -4.97056e-027   
     length 0.414137   
     axis 3.17164e-015 -90 -90   XYZ
    dof rx
    limits (0.0 90.0)
  end
  begin
     id 30
     name rthumb
     direction -0.707107 -6.34859e-011 0.707107   
     length 0.59462   
     axis -90 -45 -2.85299e-015   XYZ
    dof rx rz
    limits (-45.0 45.0)
           (-45.0 45.0)
  end
:hierarchy
  begin
    root lhipjoint rhipjoint lowerback
    lhipjoint lfemur
    lfemur ltibia
    ltibia lfoot
    lfoot ltoes
    rhipjoint rfemur
    rfemur rtibia
    rtibia rfoot
    rfoot rtoes
    lowerback upperback
    upperback thorax
    thorax lowerneck lclavicle rclavicle
    lowerneck upperneck
    upperneck head
    lclavicle lhumerus
    lhumerus lradius
    lradius lwrist
    lwrist lhand lthumb
    lhand lfingers
    rclavicle rhumerus
    rhumerus rradius
    rradius rwrist
    rwrist rhand rthumb
    rhand rfingers
  end

#!OML:ASF E:\inclinewalkrobotboard\Project 1\Capture day 1\Session 1\subject1.ASF
:FULLY-SPECIFIED
:DEGREES
192
root 9.68465 16.4239 0.725495 -133.191 -56.9782 -205.317
lowerback 9.00673 5.48223 3.80536
upperback 1.66855 7.59573 1.4002
thorax -2.9781 3.70128 -1.50718
lowerneck 0.25849 15.0441 2.16519
upperneck -7.19376 19.4299 -19.5
head 0.0393351 9.98613 -5.83445
rclavicle 2.8625e-014 -2.8625e-014
rhumerus -19.8506 45.0881 -104.728
rradius 95.6686
rwrist 8.05751
rhand -19.1719 -34.97
rfingers 7.12502
rthumb 7.13925 -64.8296
lclavicle 2.8625e-014 -2.8625e-014
lhumerus -38.3321 40.7493 51.4004
lradius 52.9327
lwrist 40.535
lhand -53.4968 -31.466
lfingers 7.12502
lthumb -25.9415 -3.21619
rfemur -39.6352 2.74012 -5.13124
rtibia 26.7492
rfoot -13.8175 -6.7008
rtoes -30.9498
lfemur -10.7103 -11.5986 -9.06158
ltibia 7.67455
lfoot -34.8809 18.6456
ltoes 23.5685
193
root 9.68798 16.4218 0.714199 -133.131 -56.7246 -205.53
lowerback 9.11431 5.36614 3.38531
upperback 1.71338 7.40554 1.31789
thorax -3.04255 3.61087 -1.35431
lowerneck 0.135559 14.6207 2.03914
upperneck -7.25909 18.8298 -19.186
head -0.0697298 9.68192 -5.76069
rclavicle -4.77083e-015 -2.8625e-014
rhumerus -19.7882 45.4043 -104.781
rradius 95.6273
rwrist 7.82639
rhand -19.3936 -34.7547
rfingers 7.12502
rthumb 6.92517 -64.6215
lclavicle -4.77083e-015 -2.8625e-014
lhumerus -38.7291 40.9194 50.9836
lradius 53.2626
lwrist 40.7525
lhand -53.5015 -31.5025
lfingers 7.12502
lthumb -25.946 -3.25331
rfemur -39.5415 2.73844 -5.33361
rtibia 26.6936
rfoot -13.8321 -6.55145
rtoes -30.6029
lfemur -10.6211 -11.4065 -9.35303
ltibia 7.76053
lfoot -34.4282 19.3105
ltoes 23.1567
194
root 9.69433 16.4247 0.699295 -133.494 -56.9105 -204.895
lowerback 8.99698 5.24513 3.58202
upperback 1.64877 7.26231 1.39272
thorax -3.03632 3.53717 -1.36154
lowerneck -0.0517446 14.0539 1.67921
upperneck -7.3497 18.0238 -18.6711
head -0.237046 9.27474 -5.60536
rclavicle -2.8625e-014 2.22639e-014
rhumerus -19.6857 45.7802 -104.635
rradius 95.5104
rwrist 7.6069
rhand -19.8806 -34.4046
rfingers 7.12502
rthumb 6.45506 -64.2862
lclavicle -2.8625e-014 2.22639e-014
lhumerus -39.1144 41.0739 50.6515
lradius 53.6392
lwrist 40.9369
lhand -53.6343 -31.5638
lfingers 7.12502
lthumb -26.0732 -3.33329
rfemur -39.7562 2.94868 -4.87303
rtibia 26.6612
rfoot -13.8448 -6.62899
rtoes -30.4526
lfemur -10.9005 -11.381 -8.73306
ltibia 7.89421
lfoot -34.2502 19.7709
ltoes 22.8356
195
root 9.70084 16.4282 0.687947 -133.753 -56.7996 -204.467
lowerback 8.95014 5.1124 3.50571
upperback 1.62097 7.07954 1.42498
thorax -3.06087 3.44662 -1.26593
lowerneck -0.193189 13.3931 1.09189
upperneck -7.62788 17.0546 -18.053
head -0.506417 8.79984 -5.40519
rclavicle 2.70347e-014 3.18055e-015
rhumerus -19.4142 46.5224 -104.258
rradius 95.2059
rwrist 7.34639
rhand -19.4849 -33.8319
rfingers 7.12502
rthumb 6.83711 -63.7015
lclavicle 2.70347e-014 3.18055e-015
lhumerus -39.7514 41.4942 50.1459
lradius 54.1051
lwrist 40.8676
lhand -53.6587 -31.2672
lfingers 7.12502
lthumb -26.0966 -3.04023
rfemur -40.0294 2.94471 -4.60188
rtibia 26.717
rfoot -13.7215 -6.44787
rtoes -30.9557
lfemur -11.0127 -11.5136 -8.50981
ltibia 7.96753
lfoot -34.7797 19.5224
ltoes 22.9504
196
root 9.70237 16.4242 0.681361 -133.65 -56.2378 -204.762
lowerback 9.07037 4.95931 2.87699
upperback 1.67495 6.82075 1.29687
thorax -3.14017 3.32499 -1.03785
lowerneck -0.371874 12.6068 0.537401
upperneck -7.87677 15.9294 -17.3329
head -0.769875 8.24102 -5.17183
rclavicle 5.24792e-014 -9.54166e-015
rhumerus -19.4673 46.9089 -104.569
rradius 95.0291
rwrist 7.4523
rhand -20.1997 -33.8227
rfingers 7.12502
rthumb 6.14703 -63.7135
lclavicle 5.24792e-014 -9.54166e-015
lhumerus -40.5345 41.9285 49.3788
lradius 54.4769
lwrist 40.7531
lhand -53.6866 -30.9415
lfingers 7.12502
lthumb -26.1233 -2.71844
rfemur -40.0745 2.73667 -4.94459
rtibia 26.7761
rfoot -13.5822 -5.99225
rtoes -31.0108
lfemur -10.7649 -11.6744 -9.12697
ltibia 8.02336
lfoot -35.6982 18.4989
ltoes 23.81
197
root 9.70398 16.4201 0.674263 -133.617 -55.8264 -204.941
lowerback 9.2311 4.87037 2.47988
upperback 1.6432 6.67015 1.07012
thorax -3.28541 3.25368 -1.05475
lowerneck -0.599822 11.5815 0.0678556
upperneck -7.93093 14.5388 -16.2036
head -1.00251 7.53196 -4.81715
rclavicle 2.8625e-014 4.45278e-014
rhumerus -19.5156 46.4964 -105.162
rradius 94.9181
rwrist 7.63633
rhand -19.1889 -34.2364
rfingers 7.12502
rthumb 7.12282 -64.0965
lclavicle 2.8625e-014 4.45278e-014
lhumerus -40.6783 41.6054 48.8941
lradius 54.499
lwrist 40.9678
lhand -54.0223 -31.2683
lfingers 7.12502
lthumb -26.4447 -3.09313
rfemur -40.0686 2.66404 -5.21744
rtibia 26.7682
rfoot -13.5457 -5.60849
rtoes -30.0655
lfemur -10.5898 -11.7336 -9.52613
ltibia 8.10755
lfoot -36.3189 17.4657
ltoes 25.1575
198
root 9.71112 16.4229 0.665037 -134.071 -55.9393 -204.235
lowerback 9.21625 4.73293 2.76324
upperback 1.5012 6.52128 1.0631
thorax -3.39698 3.17445 -1.20657
lowerneck -0.266671 10.1868 0.402193
upperneck -8.60244 12.5154 -16.0403
head -1.40859 6.54944 -4.91367
rclavicle -2.38542e-014 6.36111e-015
rhumerus -19.6607 46.5077 -105.557
rradius 94.6997
rwrist 7.47242
rhand -18.7067 -34.5193
rfingers 7.12502
rthumb 7.5883 -64.3631
lclavicle -2.38542e-014 6.36111e-015
lhumerus -40.8652 41.3552 48.4835
lradius 54.5431
lwrist 41.1748
lhand -54.2281 -31.6479
lfingers 7.12502
lthumb -26.6417 -3.50254
rfemur -40.2997 2.87757 -4.7452
rtibia 26.749
rfoot -13.5237 -5.55726
rtoes -29.3468
lfemur -10.7485 -11.6421 -8.92778
ltibia 8.1566
lfoot -36.476 17.0239
ltoes 25.6619
199
root 9.71799 16.4275 0.655084 -134.813 -56.2948 -203.017
lowerback 8.98771 4.53935 3.35357
upperback 1.35792 6.32157 1.2582
thorax -3.38479 3.06691 -1.29409
lowerneck -0.586467 8.93805 -0.75577
upperneck -8.50441 10.8714 -14.272
head -1.82728 5.68572 -4.69728
rclavicle -5.88403e-014 4.45278e-014
rhumerus -19.9451 46.9004 -105.777
rradius 94.6149
rwrist 7.30687
rhand -19.2257 -34.5352
rfingers 7.12502
rthumb 7.08729 -64.3965
lclavicle -5.88403e-014 4.45278e-014
lhumerus -41.3599 41.6032 47.9044
lradius 54.6262
lwrist 41.2651
lhand -53.9078 -31.6483
lfingers 7.12502
lthumb -26.335 -3.45671
rfemur -40.6739 3.25908 -3.88312
rtibia 26.7275
rfoot -13.4963 -5.67831
rtoes -29.1622
lfemur -11.035 -11.6162 -7.83695
ltibia 8.14272
lfoot -36.65 17.0193
ltoes 25.1687
200
root 9.72005 16.427 0.645345 -135.205 -56.3112 -202.387
lowerback 8.80946 4.33157 3.48494
upperback 1.2886 6.05514 1.28888
thorax -3.35888 2.93395 -1.29445
lowerneck -0.604789 7.48044 -1.15533
upperneck -8.85996 8.85837 -13.3458
head -2.16042 4.67973 -4.33473
rclavicle -3.33958e-014 2.54444e-014
rhumerus -19.7064 47.0276 -105.67
rradius 94.7386
rwrist 6.9962
rhand -19.6686 -34.1034
rfingers 7.12502
rthumb 6.65974 -63.9787
lclavicle -3.33958e-014 2.54444e-014
lhumerus -41.8717 41.8685 47.149
lradius 54.6815
lwrist 41.4389
lhand -53.6324 -31.6514
lfingers 7.12502
lthumb -26.0714 -3.42066
rfemur -40.8911 3.43956 -3.50936
rtibia 26.68
rfoot -13.463 -5.56909
rtoes -29.2182
lfemur -11.0799 -11.7595 -7.40256
ltibia 8.07368
lfoot -37.0132 17.0348
ltoes 24.9366
201
root 9.72175 16.4255 0.636042 -135.3 -56.0774 -202.324
lowerback 8.82177 4.03409 3.1808
upperback 1.26207 5.63482 1.2228
thorax -3.43417 2.72915 -1.15374
lowerneck -0.507279 6.00284 -1.50974
upperneck -9.47681 6.78709 -12.4612
head -2.5741 3.65385 -3.99276
rclavicle -2.70347e-014 -5.725e-014
rhumerus -19.8361 47.1476 -106.213
rradius 94.9362
rwrist 6.73195
rhand -20.1809 -33.9859
rfingers 7.12502
rthumb 6.16513 -63.8762
lclavicle -2.70347e-014 -5.725e-014
lhumerus -42.7713 42.2327 46.1154
lradius 54.9224
lwrist 41.5802
lhand -53.6339 -31.6985
lfingers 7.12502
lthumb -26.0728 -3.46793
rfemur -40.9105 3.40812 -3.52205
rtibia 26.6314
rfoot -13.4452 -5.35447
rtoes -29.3635
lfemur -10.9163 -11.9638 -7.53464
ltibia 8.01507
lfoot -37.3537 16.959
ltoes 25.2072
202
root 9.72327 16.4271 0.627678 -135.551 -55.8481 -202.161
lowerback 8.94086 3.67996 2.89328
upperback 1.26901 5.1433 1.25665
thorax -3.5407 2.48728 -0.916142
lowerneck -0.485069 4.4946 -2.46746
upperneck -10.1113 4.72875 -10.8992
head -2.97978 2.63492 -3.28112
rclavicle 5.24792e-014 3.18055e-015
rhumerus -20.0809 47.68 -106.738
rradius 95.0393
rwrist 6.37852
rhand -19.8723 -34.7429
rfingers 7.12502
rthumb 6.46309 -64.6243
lclavicle 5.24792e-014 3.18055e-015
lhumerus -44.0316 42.7895 44.9374
lradius 55.2725
lwrist 41.7352
lhand -53.6109 -31.5551
lfingers 7.12502
lthumb -26.0508 -3.32138
rfemur -40.8573 3.40719 -3.43909
rtibia 26.5698
rfoot -13.4175 -5.25866
rtoes -29.9321
lfemur -10.6442 -12.1548 -7.6358
ltibia 7.93263
lfoot -37.8496 16.5548
ltoes 25.5927
203
root 9.72942 16.429 0.596134 -136.82 -55.1245 -201.165
lowerback 9.36897 3.60028 2.24677
upperback 1.40603 4.98414 1.41641
thorax -3.71104 2.41203 -0.401162
lowerneck -0.326334 3.18214 -2.89961
upperneck -10.6114 2.9001 -10.1523
head -3.28752 1.72878 -2.93431
rclavicle 4.77083e-014 9.54166e-015
rhumerus -20.0798 48.3727 -106.876
rradius 94.9931
rwrist 6.17097
rhand -18.312 -34.8828
rfingers 7.12502
rthumb 7.96926 -64.7126
lclavicle 4.77083e-014 9.54166e-015
lhumerus -45.1739 43.2443 43.9069
lradius 55.521
lwrist 41.9417
lhand -53.56 -31.5244
lfingers 7.12502
lthumb -26.0021 -3.28351
rfemur -40.7466 4.26877 -3.10729
rtibia 26.4877
rfoot -13.3264 -5.09414
rtoes -30.7315
lfemur -9.50586 -11.7263 -7.69658
ltibia 7.38985
lfoot -38.3705 16.0971
ltoes 25.8655
204
root 9.72244 16.4237 0.611377 -136.222 -55.2375 -201.428
lowerback 8.92704 3.18456 2.38795
upperback 1.29558 4.44079 1.42492
thorax -3.58049 2.14541 -0.382834
lowerneck -0.288183 1.69758 -3.42563
upperneck -10.9633 0.862206 -9.36063
head -3.50751 0.709738 -2.52814
rclavicle 1.43125e-014 -2.22639e-014
rhumerus -20.1748 49.0256 -106.683
rradius 95.0815
rwrist 6.15623
rhand -20.0223 -34.1929
rfingers 7.12502
rthumb 6.31827 -64.0787
lclavicle 1.43125e-014 -2.22639e-014
lhumerus -45.9116 43.4466 43.1758
lradius 55.5424
lwrist 42.0905
lhand -53.5196 -32.0118
lfingers 7.12502
lthumb -25.9634 -3.76516
rfemur -41.0374 3.64636 -3.17656
rtibia 26.433
rfoot -13.237 -4.98054
rtoes -30.9521
lfemur -10.1199 -11.8376 -7.71885
ltibia 7.57622
lfoot -38.1271 16.606
ltoes 25.2659
